<svg version="1.1" id="Lag_1" xmlns="http://www.w3.org/2000/svg" xmlns:xlink="http://www.w3.org/1999/xlink" x="0px" y="0px" viewBox="0 0 355.12 129.73" style="enable-background:new 0 0 355.12 129.73;" xml:space="preserve">

<g>
	<path class="st0" d="M237.49,93.77c-8.58,0.99-20.15,5.08-21.39,14.99c-1.19,9.43,12.53,8.48,17.96,6.12
		c7.66-3.32,14.25-7.84,22.28-10.44c3.2-1.03,5.47-2.72,2.89-5.86C254.57,92.44,244.09,93.01,237.49,93.77z"></path>
	<path class="st0" d="M289.63,71.72c-13.88,2.4-31.08,16.53-22.77,31.92c7.47,13.83,30.21,15.69,43.44,11.54
		c11.04-3.47,14.5-15.63,11.55-25.83C317.75,75.18,302.88,70.4,289.63,71.72z"></path>
	<path class="st0" d="M271.8,72.54c4.23-2.56-9.02-21.75-11.21-24.86c-2.81-3.67-11.98-22.52-18.43-15.09
		c-7.08,8.16,2.58,22.41,7.43,29.31C254.82,69.33,262.27,78.3,271.8,72.54z"></path>
	<path class="st0" d="M290.07,65.35c4.14-2.52,1.66-9.51,0.71-13c-1.56-5.73-2.38-10.77-2.75-16.9c-0.34-5.61,0.1-27.66-9.28-27.19
		c-0.04,0-0.08,0.02-0.13,0.03c-0.22-0.01-0.45,0.02-0.72,0.11c-11.39,3.77-8.06,26.63-6.54,34.5
		C272.51,48.72,279.05,72.05,290.07,65.35z"></path>
	<path class="st0" d="M304,66.46c4.82,2.16,8.24-6.4,9.29-9.13c1.1-2.83,11.41-38.48,3.01-37.68c-8.29,0.79-13.11,15.32-15.57,21.59
		C298.59,48.28,295.42,62.62,304,66.46z"></path>
	<path class="st0" d="M335.78,46.13c-5.45-0.87-9.55,6.57-11.88,10.24c-1.78,2.79-11.22,15.32-5.76,17.7
		c0.04,0.02,0.11,0.01,0.16,0.02c0.03,0.01,0.02,0.03,0.05,0.03c7.28,1.16,11.61-5.28,14.73-10.82
		C334.35,61.03,341.02,46.97,335.78,46.13z"></path>
</g>
<path class="st1" d="M13.81,82.82V44.66h19.61c0.32,0.04,0.64,0.05,0.96,0.05c0.32,0,0.64,0.02,0.96,0.05
	c2.62,0.11,5.08,0.6,7.36,1.49c2.29,0.89,3.78,2.84,4.49,5.85c0.6,2.73,0.43,5.02-0.5,6.88c-0.94,1.86-2.56,3.46-4.86,4.81
	c2.55,1.21,4.25,2.76,5.1,4.68c0.85,1.91,0.97,4.29,0.37,7.12c-0.64,2.91-2.08,4.83-4.33,5.77c-2.25,0.94-4.65,1.43-7.2,1.46
	c-0.18,0-0.35,0-0.5,0c-0.16,0-0.31,0-0.45,0H13.81z M21.83,60.34h11.75c1.52,0.04,2.78-0.26,3.77-0.88
	c0.99-0.62,1.49-1.78,1.49-3.48c0.04-1.66-0.46-2.82-1.49-3.45c-1.03-0.64-2.29-0.96-3.77-0.96l-11.75-0.05V60.34z M37.49,75.2
	c0.97-0.65,1.46-1.83,1.46-3.53c0-1.74-0.49-2.92-1.46-3.56c-0.97-0.64-2.24-0.96-3.8-0.96l-11.85-0.05v8.98h11.85
	C35.24,76.15,36.51,75.85,37.49,75.2z"></path>
<path class="st1" d="M73.79,44.66c0.39,0.04,0.77,0.05,1.14,0.05s0.75,0.02,1.14,0.05c1.45,0.07,2.88,0.3,4.28,0.69
	c1.4,0.39,2.63,1.12,3.69,2.18c0.96,0.92,1.67,2,2.15,3.24c0.48,1.24,0.77,2.52,0.88,3.83c0,0.25,0.01,0.5,0.03,0.74
	c0.02,0.25,0.03,0.5,0.03,0.74c0.03,2.66-0.58,4.95-1.83,6.88c-1.26,1.93-3.22,3.22-5.87,3.85l9.51,15.89H79.9l-8.4-14.99h-9.46
	v14.99h-8.03V44.66H73.79z M71.87,51.46h-9.83v9.62h9.83c0.07,0.04,0.14,0.05,0.21,0.05c0.07,0,0.14,0,0.21,0
	c1.7,0,3.25-0.26,4.65-0.77c1.4-0.51,2.08-1.87,2.05-4.07c0-2.27-0.74-3.63-2.21-4.09c-1.47-0.46-3.11-0.69-4.92-0.69V51.46z"></path>
<path class="st1" d="M100.9,67.52c0,3.22,0.57,5.63,1.7,7.23c1.13,1.6,3.44,2.39,6.91,2.39c3.47,0,5.77-0.8,6.88-2.39
	c1.12-1.59,1.67-3.99,1.67-7.18V44.66h8.03v23.07c0,0.46,0,0.92,0,1.38c0,0.46-0.02,0.9-0.05,1.33c-0.04,1.35-0.2,2.67-0.5,3.96
	c-0.3,1.29-0.86,2.51-1.67,3.64c-1.13,1.56-2.6,2.71-4.39,3.45c-1.79,0.74-3.64,1.22-5.55,1.44c-0.74,0.11-1.49,0.18-2.23,0.21
	c-0.74,0.04-1.47,0.05-2.18,0.05c-0.67,0-1.37-0.02-2.1-0.05c-0.73-0.04-1.46-0.11-2.21-0.21c-1.95-0.18-3.83-0.64-5.63-1.38
	c-1.81-0.74-3.3-1.91-4.46-3.51c-0.82-1.13-1.36-2.35-1.65-3.64c-0.28-1.29-0.44-2.61-0.48-3.96c-0.04-0.43-0.05-0.87-0.05-1.33
	c0-0.46,0-0.9,0-1.33V44.66h7.97V67.52z"></path>
<path class="st1" d="M141.8,67.52c0,3.22,0.57,5.63,1.7,7.23c1.13,1.6,3.44,2.39,6.91,2.39c3.47,0,5.77-0.8,6.88-2.39
	c1.12-1.59,1.67-3.99,1.67-7.18V44.66H167v23.07c0,0.46,0,0.92,0,1.38c0,0.46-0.02,0.9-0.05,1.33c-0.04,1.35-0.2,2.67-0.51,3.96
	c-0.3,1.29-0.86,2.51-1.67,3.64c-1.13,1.56-2.6,2.71-4.38,3.45c-1.79,0.74-3.64,1.22-5.55,1.44c-0.74,0.11-1.49,0.18-2.23,0.21
	c-0.74,0.04-1.47,0.05-2.18,0.05c-0.67,0-1.37-0.02-2.1-0.05c-0.73-0.04-1.46-0.11-2.21-0.21c-1.95-0.18-3.83-0.64-5.63-1.38
	c-1.81-0.74-3.3-1.91-4.46-3.51c-0.82-1.13-1.36-2.35-1.65-3.64c-0.28-1.29-0.44-2.61-0.48-3.96c-0.04-0.43-0.05-0.87-0.05-1.33
	c0-0.46,0-0.9,0-1.33V44.66h7.97V67.52z"></path>
<path class="st1" d="M184.99,44.66l15.63,27.43l-0.37-27.43h8.18v38.16h-9.3L182.7,53.96l0.37,28.86h-8.24V44.66H184.99z"></path>
<g>
	<path class="st1" d="M18.8,92.3v11.41l9.36-11.41h5.99l-9.53,11.61l9.63,12.14h-6.38l-9.06-11.81v11.81h-4.99V92.3H18.8z"></path>
	<path class="st1" d="M43.74,98.62c2.49,0.02,3.94,0.6,4.33,1.72c0.4,1.12,0.58,2.64,0.56,4.53c0,0.18,0,0.35,0,0.53
		c0,0.18,0,0.36,0,0.56l-4.4-0.03c0-0.11,0-0.23,0-0.36s0-0.25,0-0.36c0-1.61-0.13-2.55-0.38-2.81c-0.25-0.26-1.17-0.4-2.76-0.4
		c-0.09,0-0.17,0-0.25,0c-0.08,0-0.16,0-0.25,0v14.06H36V98.62H43.74z"></path>
	<path class="st1" d="M66.76,113.97c-0.84,0.84-1.85,1.46-3.03,1.85c-1.18,0.4-2.4,0.6-3.65,0.6c-1.26,0-2.47-0.2-3.64-0.6
		c-1.17-0.4-2.17-1-3.01-1.82c-0.86-0.84-1.5-1.84-1.93-3.01c-0.43-1.17-0.65-2.37-0.65-3.61c0-1.23,0.21-2.44,0.65-3.61
		c0.43-1.17,1.07-2.17,1.93-3.01c0.84-0.82,1.85-1.43,3.03-1.84c1.18-0.41,2.4-0.61,3.66-0.61c1.23,0,2.44,0.2,3.62,0.61
		c1.18,0.41,2.19,1.02,3.03,1.84c0.86,0.84,1.51,1.84,1.93,3.01c0.43,1.17,0.65,2.37,0.65,3.61c0,1.24-0.21,2.44-0.65,3.61
		c-0.43,1.17-1.07,2.17-1.93,3.01V113.97z M58.52,112.35c0.15,0.07,0.3,0.12,0.45,0.17c0.14,0.04,0.28,0.08,0.41,0.1
		c1.06,0.15,2.05-0.04,2.98-0.6c0.93-0.55,1.54-1.36,1.85-2.41c0.11-0.37,0.19-0.78,0.25-1.21c0.05-0.43,0.08-0.86,0.08-1.31
		c-0.04-0.97-0.28-1.89-0.69-2.76c-0.42-0.87-1.09-1.51-2.02-1.9c-0.2-0.09-0.41-0.15-0.63-0.2c-0.22-0.04-0.43-0.08-0.63-0.1
		c-1.01-0.09-1.96,0.14-2.84,0.69c-0.88,0.55-1.48,1.32-1.79,2.32c-0.11,0.38-0.19,0.77-0.25,1.17c-0.06,0.41-0.07,0.81-0.05,1.21
		c0.02,1.04,0.26,2.01,0.71,2.93c0.45,0.92,1.17,1.56,2.17,1.94V112.35z"></path>
	<path class="st1" d="M81.51,98.62c2.6,0.02,4.64,0.77,6.1,2.25c1.47,1.48,2.25,3.5,2.36,6.05c0.07,1.17-0.04,2.32-0.33,3.44
		s-0.79,2.14-1.52,3.04c-0.88,1.15-1.92,1.87-3.11,2.18c-1.19,0.31-2.46,0.46-3.8,0.46h-3.97v6.28h-4.6V98.62H81.51z M77.25,102.39
		v9.92c0.15,0.02,0.3,0.03,0.45,0.03c0.14,0,0.29,0,0.45,0c2.12,0.02,3.84-0.19,5.16-0.65c1.32-0.45,1.95-2.06,1.89-4.81
		c-0.07-2.32-0.73-3.65-1.98-4s-2.77-0.52-4.53-0.5c-0.24,0.02-0.48,0.03-0.71,0.03c-0.23,0-0.47,0-0.71,0V102.39z"></path>
	<path class="st1" d="M102.72,112.41c0.04,0.02,0.09,0.03,0.13,0.03c0.04,0,0.09,0,0.13,0c0.55-0.02,1.06-0.14,1.52-0.36
		c0.46-0.22,0.69-0.67,0.69-1.36c0-0.64-0.22-1.07-0.66-1.29c-0.44-0.22-0.92-0.35-1.42-0.4c-0.07,0-0.13,0-0.2,0s-0.13,0-0.2,0
		l-3.97-0.03c-1.85,0.02-3.31-0.23-4.38-0.76c-1.07-0.53-1.62-1.87-1.64-4.04c-0.02-2.03,0.53-3.46,1.65-4.3
		c1.12-0.84,2.62-1.26,4.5-1.26l9.89-0.03v3.64h-8.14c-0.07,0.02-0.13,0.03-0.18,0.03c-0.06,0-0.12,0-0.18,0c-0.15,0-0.3,0-0.45,0
		c-0.14,0-0.3,0-0.48,0c-0.4,0.02-0.78,0.11-1.14,0.26c-0.36,0.15-0.6,0.44-0.71,0.86c-0.18,0.77-0.02,1.3,0.46,1.59
		c0.49,0.29,1.05,0.43,1.69,0.43l4.17-0.03c1.63,0.02,3,0.4,4.1,1.14c1.1,0.74,1.69,2.01,1.75,3.82c0,0.02,0,0.04,0,0.05
		c0,0.01,0,0.03,0,0.05c0.02,1.41-0.38,2.7-1.21,3.85c-0.83,1.16-2.01,1.74-3.56,1.74H93.02v-3.64H102.72z"></path>
	<path class="st1" d="M114.92,98.62V92.3h4.6v6.32h4.86v3.47h-4.86v7.05c-0.02,1.74,0.37,2.76,1.19,3.04
		c0.82,0.29,1.94,0.43,3.37,0.43c0.04,0,0.09,0,0.15,0c0.05,0,0.1,0,0.15,0v3.44h-4.2c-1.74,0-3.05-0.48-3.94-1.46
		c-0.88-0.97-1.32-2.29-1.32-3.97v-8.53h-3.24v-3.47H114.92z"></path>
	<path class="st1" d="M131.74,115.6c-1.16-0.3-2.18-0.92-3.06-1.87c-0.71-0.77-1.22-1.65-1.54-2.65c-0.32-0.99-0.51-2.01-0.58-3.04
		c0-0.11,0-0.22,0-0.33c0-0.11,0-0.22,0-0.33c0-0.15,0-0.3,0-0.45c0-0.14,0.01-0.29,0.03-0.45c0.07-0.99,0.26-1.97,0.58-2.93
		c0.32-0.96,0.82-1.81,1.51-2.56c0.88-0.97,1.9-1.6,3.06-1.9c1.16-0.3,2.35-0.45,3.59-0.45l6.71-0.03v3.64h-6.09
		c-1.28,0.02-2.3,0.22-3.08,0.58c-0.77,0.36-1.18,1.27-1.22,2.73l10.39-0.03v3.64h-10.39c0.04,1.52,0.43,2.45,1.16,2.78
		c0.73,0.33,1.76,0.5,3.11,0.5l6.12-0.03v3.64h-6.71C134.09,116.05,132.9,115.9,131.74,115.6z"></path>
	<path class="st1" d="M153.19,98.62c2.49,0.02,3.94,0.6,4.33,1.72c0.4,1.12,0.58,2.64,0.56,4.53c0,0.18,0,0.35,0,0.53
		c0,0.18,0,0.36,0,0.56l-4.4-0.03c0-0.11,0-0.23,0-0.36s0-0.25,0-0.36c0-1.61-0.13-2.55-0.38-2.81c-0.25-0.26-1.17-0.4-2.76-0.4
		c-0.09,0-0.17,0-0.25,0c-0.08,0-0.16,0-0.25,0v14.06h-4.6V98.62H153.19z"></path>
	<path class="st1" d="M171.25,98.62c1.01,0.02,1.99,0.14,2.93,0.35c0.94,0.21,1.78,0.69,2.53,1.44c0.64,0.62,1.09,1.35,1.34,2.18
		c0.25,0.84,0.38,1.7,0.38,2.58v10.88h-12.37c-1.79,0-3.15-0.49-4.1-1.47c-0.95-0.98-1.38-2.34-1.29-4.08
		c0.15-2.09,0.89-3.45,2.22-4.07c1.32-0.62,2.9-0.93,4.73-0.93l6.05-0.03c0.07-1.43-0.3-2.33-1.11-2.68
		c-0.81-0.35-1.83-0.53-3.06-0.53l-7.67-0.03v-3.61H171.25z M167.94,112.54h5.76v-3.61h-5.42c-0.04,0.02-0.09,0.03-0.13,0.03
		c-0.04,0-0.09,0-0.13,0c-0.62,0.02-1.19,0.14-1.72,0.35c-0.53,0.21-0.81,0.7-0.83,1.47c-0.04,0.86,0.19,1.37,0.71,1.52
		c0.52,0.15,1.11,0.24,1.77,0.26V112.54z"></path>
	<path class="st1" d="M191.82,98.62c2.6,0.02,4.64,0.77,6.1,2.25c1.47,1.48,2.25,3.5,2.37,6.05c0.07,1.17-0.05,2.32-0.33,3.44
		c-0.29,1.12-0.79,2.14-1.52,3.04c-0.88,1.15-1.92,1.87-3.11,2.18c-1.19,0.31-2.46,0.46-3.8,0.46h-3.97v6.28h-4.6V98.62H191.82z
		 M187.56,102.39v9.92c0.15,0.02,0.3,0.03,0.45,0.03s0.29,0,0.45,0c2.12,0.02,3.84-0.19,5.16-0.65c1.32-0.45,1.95-2.06,1.88-4.81
		c-0.07-2.32-0.73-3.65-1.98-4c-1.26-0.35-2.77-0.52-4.53-0.5c-0.24,0.02-0.48,0.03-0.71,0.03c-0.23,0-0.47,0-0.71,0V102.39z"></path>
	<path class="st1" d="M203.6,96.63V92.3h4.83v4.33H203.6z M203.6,116.05V98.62h4.83v17.43H203.6z"></path>
</g>
<g>
	<path class="st1" d="M223.93,62.96c-1.1,0.02-2.03,0.25-2.78,0.69c-0.75,0.44-1.13,1.28-1.13,2.51c0,0.94,0.32,1.62,0.96,2.02
		c0.64,0.4,1.39,0.61,2.24,0.61l6.74-0.03c0.25,0.02,0.51,0.03,0.78,0.03c0.27,0,0.54,0.01,0.81,0.03c0.79,0.05,1.56,0.17,2.33,0.39
		c0.76,0.21,1.44,0.6,2.02,1.16c0.54,0.49,0.94,1.09,1.21,1.79c0.27,0.7,0.44,1.42,0.51,2.16c0.02,0.22,0.04,0.44,0.05,0.66
		c0.01,0.21,0.02,0.43,0.02,0.66c-0.05,2.81-0.82,4.71-2.32,5.71c-1.51,1-3.55,1.5-6.14,1.5h-13.55v-4.31h12.74
		c1.12,0.02,2.1-0.16,2.92-0.54c0.82-0.38,1.15-1.25,0.99-2.6c-0.11-1.06-0.51-1.71-1.18-1.95c-0.67-0.25-1.47-0.38-2.39-0.4
		l-6-0.03c-2.49,0.02-4.47-0.48-5.92-1.5c-1.45-1.02-2.16-2.87-2.14-5.54c0.04-2.81,0.83-4.72,2.34-5.75
		c1.52-1.02,3.57-1.53,6.15-1.53l13.31-0.03v4.32H223.93z"></path>
</g>
</svg>